<?xml version="1.0" encoding="iso-8859-1"?>
<!-- Generator: Adobe Illustrator 19.0.0, SVG Export Plug-In . SVG Version: 6.00 Build 0)  -->
<svg version="1.1" id="Capa_1" xmlns="http://www.w3.org/2000/svg" xmlns:xlink="http://www.w3.org/1999/xlink" x="0px" y="0px"
	 viewBox="0 0 512 512" style="enable-background:new 0 0 512 512;" xml:space="preserve">
<circle style="fill:#FEA626;" cx="256" cy="256" r="256"/>
<path style="fill:#FE6D00;" d="M510.293,285.544L369.521,144.772l-26.783,50.058L214.407,66.5L134,89.5l85.796,85.796L178.637,437.5
	l74.463,74.463c0.967,0.011,1.93,0.037,2.9,0.037C387.391,512,495.643,413.01,510.293,285.544z"/>
<polygon style="fill:#5BD2FD;" points="332.331,437.501 177.606,437.501 140.415,144.772 369.521,144.772 "/>
<polygon style="fill:#08B6F6;" points="369.521,144.772 255.952,144.772 255.952,437.501 332.331,437.501 "/>
<polygon style="fill:#88372F;" points="154.146,253 177.586,437.501 332.311,437.501 355.751,253 "/>
<polygon style="fill:#731D15;" points="355.761,253 255.973,253 255.973,437.501 332.321,437.501 "/>
<polygon style="fill:#FFFFFF;" points="223.557,389.144 193.593,89.5 134,89.5 134,66.5 214.407,66.5 246.443,386.856 "/>
<path style="fill:#88372F;" d="M292.343,330.075l-23.297-14.296c-7.61-4.67-9.993-14.625-5.324-22.235l14.296-23.297
	c4.67-7.61,14.625-9.993,22.235-5.324l23.297,14.296c7.61,4.67,9.993,14.625,5.324,22.235l-14.296,23.297
	C309.908,332.362,299.953,334.745,292.343,330.075z"/>
<path style="fill:#A5625B;" d="M203.711,300.909l-23.297-14.296c-7.61-4.67-9.993-14.625-5.324-22.235l14.296-23.297
	c4.67-7.61,14.625-9.993,22.235-5.324l23.297,14.296c7.61,4.67,9.993,14.625,5.324,22.235l-14.296,23.297
	C221.276,303.195,211.321,305.579,203.711,300.909z"/>
<g>
</g>
<g>
</g>
<g>
</g>
<g>
</g>
<g>
</g>
<g>
</g>
<g>
</g>
<g>
</g>
<g>
</g>
<g>
</g>
<g>
</g>
<g>
</g>
<g>
</g>
<g>
</g>
<g>
</g>
</svg>
