<?xml version="1.0" encoding="iso-8859-1"?>
<!-- Generator: Adobe Illustrator 19.0.0, SVG Export Plug-In . SVG Version: 6.00 Build 0)  -->
<svg version="1.1" id="Capa_1" xmlns="http://www.w3.org/2000/svg" xmlns:xlink="http://www.w3.org/1999/xlink" x="0px" y="0px"
	 viewBox="0 0 512 512" style="enable-background:new 0 0 512 512;" xml:space="preserve">
<circle style="fill:#FEA626;" cx="256" cy="256" r="256"/>
<path style="fill:#FE6D00;" d="M512,256c0-2.577-0.05-5.142-0.125-7.7L369.547,105.972l-52.891,96.684L188.333,74.333L122.619,231.5
	l41.884,41.884L114.333,421l84.609,84.609C217.291,509.786,236.386,512,256,512C397.385,512,512,397.385,512,256z"/>
<path style="fill:#FFFFFF;" d="M427.667,258.333C425.667,345.667,377.098,435,281,435S79,366.629,79,279
	s113.333-48.667,203.333-169.333C339.787,32.636,430.168,149.106,427.667,258.333z"/>
<path style="fill:#F2F2F2;" d="M282.333,109.667c-3.74,5.015-7.522,9.749-11.333,14.233v310.849c3.342,0.162,6.677,0.251,10,0.251
	c96.098,0,144.667-89.333,146.667-176.667C430.168,149.106,339.787,32.636,282.333,109.667z"/>
<circle style="fill:#FFB80E;" cx="271.17" cy="288.21" r="61.5"/>
<path style="fill:#F2A50A;" d="M271.167,226.714c-0.056,0-0.111,0.004-0.167,0.004V349.71c0.056,0,0.111,0.004,0.167,0.004
	c33.965,0,61.5-27.535,61.5-61.5S305.132,226.714,271.167,226.714z"/>
<path style="fill:#FF4681;" d="M188.333,421c-24.667,0-49.333,0-74,0c35.52-115.556-35.52-231.111,0-346.667c24.667,0,49.333,0,74,0
	C152.813,189.889,223.853,305.444,188.333,421z"/>
<path style="fill:#C32363;" d="M188.333,74.333c-12,0-24,0-36,0V421c12,0,24,0,36,0C223.853,305.444,152.813,189.889,188.333,74.333
	z"/>
<path id="SVGCleanerId_0" style="fill:#FFA899;" d="M164.667,74.333c-9.778,0-19.556,0-29.333,0
	c-35.52,115.555,35.52,231.111,0,346.667c9.778,0,19.556,0,29.333,0C200.187,305.444,129.147,189.889,164.667,74.333z"/>
<g>
	<path id="SVGCleanerId_0_1_" style="fill:#FFA899;" d="M164.667,74.333c-9.778,0-19.556,0-29.333,0
		c-35.52,115.555,35.52,231.111,0,346.667c9.778,0,19.556,0,29.333,0C200.187,305.444,129.147,189.889,164.667,74.333z"/>
</g>
<path style="fill:#FF6472;" d="M164.667,74.333c-4.445,0-8.889,0-13.333,0c-35.52,115.555,35.52,231.111,0,346.667
	c4.445,0,8.889,0,13.333,0C200.187,305.444,129.147,189.889,164.667,74.333z"/>
<g>
</g>
<g>
</g>
<g>
</g>
<g>
</g>
<g>
</g>
<g>
</g>
<g>
</g>
<g>
</g>
<g>
</g>
<g>
</g>
<g>
</g>
<g>
</g>
<g>
</g>
<g>
</g>
<g>
</g>
</svg>
