<?xml version="1.0" encoding="iso-8859-1"?>
<!-- Generator: Adobe Illustrator 19.0.0, SVG Export Plug-In . SVG Version: 6.00 Build 0)  -->
<svg version="1.1" id="Capa_1" xmlns="http://www.w3.org/2000/svg" xmlns:xlink="http://www.w3.org/1999/xlink" x="0px" y="0px"
	 viewBox="0 0 512 512" style="enable-background:new 0 0 512 512;" xml:space="preserve">
<circle style="fill:#1B56DB;" cx="256" cy="256" r="256"/>
<path style="fill:#0619BD;" d="M512,256c0-25.128-3.637-49.403-10.385-72.348l-91.011-91.011l-2.448,4.029l-29.622-29.623
	l-169.725,61.031L286,205.271L77,331.553l28.647,28.647l-1.876,0.762l151.023,151.023c0.403,0.002,0.803,0.015,1.207,0.015
	C397.385,512,512,397.385,512,256z"/>
<polygon style="fill:#D6283B;" points="377.742,396.812 241.67,396.812 220.62,103.47 398.791,103.47 "/>
<polygon style="fill:#C20231;" points="398.791,103.47 308.333,103.47 308.333,396.812 377.742,396.812 "/>
<polygon style="fill:#E0E0E0;" points="407.159,102.485 212.253,102.485 240.879,67.048 378.533,67.048 "/>
<polygon style="fill:#C0C0C0;" points="378.533,67.048 308.333,67.048 308.333,102.485 407.159,102.485 "/>
<rect x="208.81" y="92.64" style="fill:#B4C0C5;" width="201.8" height="35.437"/>
<rect x="308.33" y="92.64" style="fill:#9CA7AC;" width="102.27" height="35.438"/>
<path style="fill:#FEF4D5;" d="M395.971,142.777c-17.962,21.483-48.456,48.77-93.192,59.543
	c-26.958,6.492-51.341,17.125-72.801,31.553l6.401,89.199c25.423-46.833,60.743-82.82,113.738-95.583
	c14.084-3.392,27.77-8.144,40.755-13.651L395.971,142.777z"/>
<path style="fill:#FEEFBB;" d="M308.333,200.865v43.271c12.574-7.293,26.433-12.95,41.784-16.647
	c14.084-3.392,27.77-8.144,40.755-13.651l5.099-71.061C378.764,163.356,350.046,189.253,308.333,200.865z"/>
<path style="fill:#FCAD39;" d="M268.014,202.284H154.603c-40.682,0-73.717,32.716-74.245,73.272h261.9
	C341.73,235,308.695,202.284,268.014,202.284z"/>
<path style="fill:#FE8E38;" d="M268.014,202.284H211.31v73.272h130.949C341.73,235,308.695,202.284,268.014,202.284z"/>
<path style="fill:#FCAD39;" d="M83.483,328.225c9.181,30.59,37.541,52.883,71.12,52.883h113.411
	c33.579,0,61.939-22.294,71.12-52.883H83.483z"/>
<path style="fill:#FE8E38;" d="M211.31,328.225v52.883h56.704c33.579,0,61.939-22.293,71.12-52.883H211.31z"/>
<path style="fill:#FFDE1F;" d="M334.085,335.459H88.531c-10.486,0-18.986-8.5-18.986-18.986l0,0c0-10.486,8.5-18.986,18.986-18.986
	h245.554c10.486,0,18.986,8.5,18.986,18.986l0,0C353.071,326.959,344.571,335.459,334.085,335.459z"/>
<path style="fill:#FFC855;" d="M334.085,297.487H211.31v37.972h122.776c10.486,0,18.986-8.5,18.986-18.986l0,0
	C353.072,305.987,344.571,297.487,334.085,297.487z"/>
<path style="fill:#7A3817;" d="M334.085,310.576H88.531c-10.486,0-18.986-8.5-18.986-18.986l0,0c0-10.486,8.5-18.986,18.986-18.986
	h245.554c10.486,0,18.986,8.5,18.986,18.986l0,0C353.071,302.075,344.571,310.576,334.085,310.576z"/>
<path style="fill:#5D2307;" d="M334.085,272.604H211.31v37.972h122.776c10.486,0,18.986-8.5,18.986-18.986
	S344.571,272.604,334.085,272.604z"/>
<g>
</g>
<g>
</g>
<g>
</g>
<g>
</g>
<g>
</g>
<g>
</g>
<g>
</g>
<g>
</g>
<g>
</g>
<g>
</g>
<g>
</g>
<g>
</g>
<g>
</g>
<g>
</g>
<g>
</g>
</svg>
