<?xml version="1.0" encoding="iso-8859-1"?>
<!-- Generator: Adobe Illustrator 19.0.0, SVG Export Plug-In . SVG Version: 6.00 Build 0)  -->
<svg version="1.1" id="Capa_1" xmlns="http://www.w3.org/2000/svg" xmlns:xlink="http://www.w3.org/1999/xlink" x="0px" y="0px"
	 viewBox="0 0 512 512" style="enable-background:new 0 0 512 512;" xml:space="preserve">
<circle style="fill:#1B56DB;" cx="256" cy="256" r="256"/>
<path style="fill:#0619BD;" d="M512,256c0-7.933-0.38-15.777-1.087-23.526l-115.19-115.19l-5.202,5.709l-21.525-21.525l-1.584,3.589
	l-27.251-27.252l-10.529,31.58l-30.793-30.793l-2.658,11.963l-27.316-27.316l-8.738,41.765l-28.155-28.155l-1.696,73.606
	l-29.74-29.74l-47.126,315.38l74.348,74.348C237.032,511.46,246.452,512,256,512C397.385,512,512,397.385,512,256z"/>
<rect x="234.5" y="63.24" style="fill:#FDDF7B;" width="34.36" height="214.21"/>
<rect x="255.95" y="63.24" style="fill:#FEEFBB;" width="12.912" height="214.21"/>
<g>
	<rect x="264.48" y="78.59" style="fill:#FCAD39;" width="34.36" height="214.21"/>
	
		<rect x="310.547" y="94.691" transform="matrix(-0.9734 -0.2293 0.2293 -0.9734 600.4525 473.3698)" style="fill:#FCAD39;" width="34.361" height="214.219"/>
</g>
<g>
	
		<rect x="284.229" y="72.008" transform="matrix(-0.9788 -0.2049 0.2049 -0.9788 559.7245 416.1869)" style="fill:#FDD03B;" width="34.361" height="214.214"/>
	
		<rect x="339.792" y="111.485" transform="matrix(-0.9788 -0.2049 0.2049 -0.9788 661.5823 505.6885)" style="fill:#FDD03B;" width="34.361" height="214.214"/>
</g>
<rect x="174.565" y="121.726" transform="matrix(-0.997 0.0778 -0.0778 -0.997 400.7119 442.0569)" style="fill:#FDDF7B;" width="34.361" height="214.217"/>
<g>
	
		<rect x="206.003" y="77.854" transform="matrix(-0.997 0.0778 -0.0778 -0.997 460.0809 352.0012)" style="fill:#FEEFBB;" width="34.361" height="214.217"/>
	
		<rect x="141.674" y="142.201" transform="matrix(-0.997 0.0778 -0.0778 -0.997 336.623 485.5045)" style="fill:#FEEFBB;" width="34.361" height="214.217"/>
</g>
<polygon style="fill:#D6283B;" points="357.27,436.094 153.408,436.094 129.957,223.347 380.721,223.347 "/>
<g>
	<polygon style="fill:#C20231;" points="380.721,223.347 255.952,223.347 255.952,436.094 357.27,436.094 	"/>
	<polygon style="fill:#C20231;" points="326.063,436.094 184.615,436.094 168.345,223.347 342.333,223.347 	"/>
</g>
<polygon style="fill:#8C0028;" points="342.333,223.347 255.952,223.347 255.952,436.094 326.063,436.094 "/>
<circle style="fill:#FFFFFF;" cx="255.34" cy="331.55" r="67.808"/>
<path style="fill:#FEF4D5;" d="M323.147,331.549c0-37.244-30.03-67.462-67.195-67.793v135.586
	C293.118,399.01,323.147,368.792,323.147,331.549z"/>
<g>
</g>
<g>
</g>
<g>
</g>
<g>
</g>
<g>
</g>
<g>
</g>
<g>
</g>
<g>
</g>
<g>
</g>
<g>
</g>
<g>
</g>
<g>
</g>
<g>
</g>
<g>
</g>
<g>
</g>
</svg>
