<?xml version="1.0" encoding="iso-8859-1"?>
<!-- Generator: Adobe Illustrator 19.0.0, SVG Export Plug-In . SVG Version: 6.00 Build 0)  -->
<svg version="1.1" id="Capa_1" xmlns="http://www.w3.org/2000/svg" xmlns:xlink="http://www.w3.org/1999/xlink" x="0px" y="0px"
	 viewBox="0 0 512 512" style="enable-background:new 0 0 512 512;" xml:space="preserve">
<circle style="fill:#1B56DB;" cx="256" cy="256" r="256"/>
<path style="fill:#0619BD;" d="M511.328,274.521L336.241,99.435L150.979,305l100.155,100.155L192.518,454l57.93,57.93
	c1.847,0.039,3.696,0.07,5.553,0.07C391.156,512,501.836,407.259,511.328,274.521z"/>
<path style="fill:#FEF4D5;" d="M375.333,168.333c0,58.174-53.427,105.333-119.333,105.333s-119.333-47.159-119.333-105.333
	S256,35.667,256,35.667S375.333,110.159,375.333,168.333z"/>
<path style="fill:#FEEFBB;" d="M255.952,273.666c0.016,0,0.032,0,0.048,0c65.906,0,119.333-47.159,119.333-105.333
	S256,35.667,256,35.667L255.952,273.666z"/>
<path style="fill:#FFCABC;" d="M315,168.333c0,58.174-26.415,105.333-59,105.333s-59-47.159-59-105.333s59-132.667,59-132.667
	S315,110.159,315,168.333z"/>
<path style="fill:#FFA899;" d="M255.952,273.666c0.016,0,0.032,0.001,0.048,0.001c32.585,0,59-47.159,59-105.333
	S256,35.667,256,35.667L255.952,273.666z"/>
<polygon style="fill:#FCAD39;" points="319.482,454 192.518,454 162,262.333 350,262.333 "/>
<g>
	<polygon style="fill:#FE8E38;" points="350,262.333 255.952,262.333 255.952,454 319.482,454 	"/>
	<rect x="150.98" y="218.33" style="fill:#FE8E38;" width="210.04" height="86.67"/>
</g>
<rect x="255.95" y="218.33" style="fill:#FF6D38;" width="105.07" height="86.67"/>
<g>
</g>
<g>
</g>
<g>
</g>
<g>
</g>
<g>
</g>
<g>
</g>
<g>
</g>
<g>
</g>
<g>
</g>
<g>
</g>
<g>
</g>
<g>
</g>
<g>
</g>
<g>
</g>
<g>
</g>
</svg>
