<?xml version="1.0" encoding="iso-8859-1"?>
<!-- Generator: Adobe Illustrator 19.0.0, SVG Export Plug-In . SVG Version: 6.00 Build 0)  -->
<svg version="1.1" id="Capa_1" xmlns="http://www.w3.org/2000/svg" xmlns:xlink="http://www.w3.org/1999/xlink" x="0px" y="0px"
	 viewBox="0 0 512 512" style="enable-background:new 0 0 512 512;" xml:space="preserve">
<circle style="fill:#D6283B;" cx="256" cy="256" r="256"/>
<path style="fill:#C20231;" d="M508.009,301.269L396.868,190.127l-26.326,21.779l-69.207-69.207l-0.28,6.616l-27.569-27.568
	l-77.057,184.02L64.667,333l178.687,178.687C247.544,511.891,251.76,512,256,512C381.938,512,486.635,421.062,508.009,301.269z"/>
<path style="fill:#FEF4D5;" d="M279.069,132.948h-1.307c0.108-0.653,0.17-1.343,0.17-2.083c0-9.85-22.01-23.781-22.01-23.781
	s-22.01,13.931-22.01,23.781c0,0.74,0.062,1.43,0.17,2.083h-1.307c-16.741,0-30.311,13.571-30.311,30.311
	s13.571,30.311,30.311,30.311h46.294c16.74,0,30.311-13.571,30.311-30.311S295.81,132.948,279.069,132.948z"/>
<path style="fill:#FEEFBB;" d="M279.069,132.948h-1.307c0.108-0.653,0.17-1.343,0.17-2.083c0-9.705-21.349-23.36-21.98-23.762
	v86.468h23.117c16.74,0,30.311-13.571,30.311-30.311C309.381,146.519,295.81,132.948,279.069,132.948z"/>
<polygon style="fill:#88E6FF;" points="400.975,354.472 111.025,354.472 100.333,325.138 411.667,325.138 "/>
<polygon style="fill:#5BD2FD;" points="411.667,325.138 255.952,325.138 255.952,354.472 400.975,354.472 "/>
<path style="fill:#FDD03B;" d="M385.895,305.766H126.106c-7.974,0-14.439-6.464-14.439-14.439v-1.988
	c0-7.974,6.464-14.439,14.439-14.439h259.789c7.974,0,14.439,6.464,14.439,14.439v1.988
	C400.333,299.302,393.869,305.766,385.895,305.766z"/>
<g>
	<path style="fill:#FCAD39;" d="M385.895,274.901H255.952v30.865h129.942c7.974,0,14.439-6.464,14.439-14.439v-1.988
		C400.333,281.365,393.869,274.901,385.895,274.901z"/>
	<path style="fill:#FCAD39;" d="M385.895,275.822H126.106c-7.974,0-14.439-6.464-14.439-14.439v-1.988
		c0-7.974,6.464-14.439,14.439-14.439h259.789c7.974,0,14.439,6.464,14.439,14.439v1.988
		C400.333,269.357,393.869,275.822,385.895,275.822z"/>
</g>
<path style="fill:#FE8E38;" d="M385.895,244.956H255.952v30.865h129.942c7.974,0,14.439-6.464,14.439-14.438v-1.988
	C400.333,251.421,393.869,244.956,385.895,244.956z"/>
<path style="fill:#FDD03B;" d="M385.895,245.877H126.106c-7.974,0-14.439-6.464-14.439-14.439v-1.988
	c0-7.974,6.464-14.439,14.439-14.439h259.789c7.974,0,14.439,6.464,14.439,14.439v1.988
	C400.333,239.413,393.869,245.877,385.895,245.877z"/>
<g>
	<path style="fill:#FCAD39;" d="M385.895,215.012H255.952v30.865h129.942c7.974,0,14.439-6.464,14.439-14.438v-1.988
		C400.333,221.476,393.869,215.012,385.895,215.012z"/>
	<path style="fill:#FCAD39;" d="M385.895,215.933H126.106c-7.974,0-14.439-6.464-14.439-14.439v-1.988
		c0-7.974,6.464-14.439,14.439-14.439h259.789c7.974,0,14.439,6.464,14.439,14.439v1.988
		C400.333,209.468,393.869,215.933,385.895,215.933z"/>
</g>
<path style="fill:#FE8E38;" d="M385.895,185.067H255.952v30.865h129.942c7.974,0,14.439-6.464,14.439-14.439v-1.987
	C400.333,191.532,393.869,185.067,385.895,185.067z"/>
<rect x="64.67" y="303.67" style="fill:#5BD2FD;" width="382.67" height="29.333"/>
<rect x="255.95" y="303.67" style="fill:#08B6F6;" width="191.38" height="29.333"/>
<path style="fill:#FE6D00;" d="M140,185.067v82.255c0,9.357,7.336,17.267,16.69,17.523c9.704,0.266,17.655-7.521,17.655-17.166
	v-28.722c0-8.393,6.804-15.197,15.197-15.197l0,0c8.393,0,15.197,6.804,15.197,15.197v9.521c0,9.357,7.336,17.267,16.69,17.523
	c9.704,0.266,17.655-7.521,17.655-17.166v-63.768H140z"/>
<g>
</g>
<g>
</g>
<g>
</g>
<g>
</g>
<g>
</g>
<g>
</g>
<g>
</g>
<g>
</g>
<g>
</g>
<g>
</g>
<g>
</g>
<g>
</g>
<g>
</g>
<g>
</g>
<g>
</g>
</svg>
