<?xml version="1.0" encoding="iso-8859-1"?>
<!-- Generator: Adobe Illustrator 19.0.0, SVG Export Plug-In . SVG Version: 6.00 Build 0)  -->
<svg version="1.1" id="Capa_1" xmlns="http://www.w3.org/2000/svg" xmlns:xlink="http://www.w3.org/1999/xlink" x="0px" y="0px"
	 viewBox="0 0 512 512" style="enable-background:new 0 0 512 512;" xml:space="preserve">
<circle style="fill:#1B56DB;" cx="256" cy="256" r="256"/>
<path style="fill:#0619BD;" d="M512,256c0-9.353-0.516-18.585-1.494-27.679L428.5,146.314l-322.521,10.019l-2.544,26.768
	l185.697,185.697L256,454l52.583,52.583C424.742,482.331,512,379.36,512,256z"/>
<path style="fill:#FEF4D5;" d="M256,454L105.979,165.317l0,0c82.854-82.854,217.188-82.854,300.042,0l0,0L256,454z"/>
<path style="fill:#FEEFBB;" d="M406.021,165.317L406.021,165.317c-41.439-41.439-95.756-62.153-150.069-62.14L256,454l0,0
	L406.021,165.317z"/>
<path style="fill:#FDD03B;" d="M408.566,183.102l19.934-36.787l0,0c-95.269-95.269-249.731-95.269-345,0l0,0l19.934,36.787
	C192.34,111.671,319.66,111.671,408.566,183.102z"/>
<path style="fill:#FCAD39;" d="M428.5,146.314c-47.647-47.647-110.099-71.463-172.547-71.451v54.666
	c54.072-0.01,108.147,17.847,152.613,53.572L428.5,146.314L428.5,146.314z"/>
<circle style="fill:#D6283B;" cx="256" cy="331.43" r="46.06"/>
<path style="fill:#C20231;" d="M256,285.377c-0.016,0-0.032,0.001-0.048,0.001l0.039,92.11c0.016,0-0.007,0.003,0.009,0.003
	c25.437,0,46.057-20.62,46.057-46.057S281.437,285.377,256,285.377z"/>
<circle style="fill:#D6283B;" cx="190.03" cy="206.34" r="46.06"/>
<circle style="fill:#C20231;" cx="321.97" cy="207.8" r="46.06"/>
<rect x="183.168" y="205.311" transform="matrix(-0.7071 -0.7071 0.7071 -0.7071 210.228 528.7018)" style="fill:#FF8700;" width="62.887" height="31"/>
<rect x="277.501" y="272.9" transform="matrix(-0.7071 -0.7071 0.7071 -0.7071 290.1096 714.3467)" style="fill:#F15A24;" width="31" height="48.38"/>
<g>
</g>
<g>
</g>
<g>
</g>
<g>
</g>
<g>
</g>
<g>
</g>
<g>
</g>
<g>
</g>
<g>
</g>
<g>
</g>
<g>
</g>
<g>
</g>
<g>
</g>
<g>
</g>
<g>
</g>
</svg>
