<?xml version="1.0" encoding="iso-8859-1"?>
<!-- Generator: Adobe Illustrator 19.0.0, SVG Export Plug-In . SVG Version: 6.00 Build 0)  -->
<svg version="1.1" id="Capa_1" xmlns="http://www.w3.org/2000/svg" xmlns:xlink="http://www.w3.org/1999/xlink" x="0px" y="0px"
	 viewBox="0 0 512 512" style="enable-background:new 0 0 512 512;" xml:space="preserve">
<circle style="fill:#FFDC00;" cx="256" cy="256" r="256"/>
<path style="fill:#F9C41E;" d="M512,256c0-5.425-0.189-10.806-0.521-16.147l-81.955-81.955l-82.257,104.497L242.769,157.897
	L62.483,361.536L208.537,507.59C223.919,510.474,239.78,512,256,512C397.385,512,512,397.385,512,256z"/>
<rect x="62.48" y="304.48" style="fill:#88372F;" width="387.03" height="57.06"/>
<rect x="255.95" y="304.48" style="fill:#731D15;" width="193.56" height="57.06"/>
<path style="fill:#4D4D4D;" d="M213.862,343.285H112.751c-21.14,0-38.278-17.138-38.278-38.278V182.973
	c0-21.14,17.138-38.278,38.278-38.278h101.111c21.14,0,38.278,17.138,38.278,38.278v122.035
	C252.14,326.148,235.003,343.285,213.862,343.285z"/>
<path style="fill:#333333;" d="M213.862,144.695H162.5v198.59h51.362c21.14,0,38.278-17.137,38.278-38.278V182.973
	C252.14,161.833,235.003,144.695,213.862,144.695z"/>
<path style="fill:#FFFFFF;" d="M209.995,249.872h-93.377c-19.523,0-35.35-15.827-35.35-35.35v-27.124
	c0-19.523,15.827-35.35,35.35-35.35h93.377c19.523,0,35.35,15.827,35.35,35.35v27.124
	C245.345,234.046,229.519,249.872,209.995,249.872z"/>
<path style="fill:#E0E0E0;" d="M209.995,152.049H162.5v97.824h47.495c19.523,0,35.35-15.827,35.35-35.35v-27.124
	C245.345,167.875,229.519,152.049,209.995,152.049z"/>
<path style="fill:#FFA899;" d="M183.908,222.543h-41.202c-8.615,0-15.598-6.983-15.598-15.598v-11.968
	c0-8.615,6.983-15.598,15.598-15.598h41.202c8.615,0,15.598,6.983,15.598,15.598v11.968
	C199.506,215.559,192.523,222.543,183.908,222.543z"/>
<path style="fill:#FF6472;" d="M183.908,179.378H162.5v43.164h21.408c8.615,0,15.598-6.984,15.598-15.598v-11.968
	C199.506,186.362,192.523,179.378,183.908,179.378z"/>
<path style="fill:#4D4D4D;" d="M400.617,343.285H299.505c-21.14,0-38.278-17.138-38.278-38.278V182.973
	c0-21.14,17.138-38.278,38.278-38.278h101.111c21.14,0,38.278,17.138,38.278,38.278v122.035
	C438.894,326.148,421.757,343.285,400.617,343.285z"/>
<path style="fill:#333333;" d="M400.617,144.695H348.81v198.59h51.807c21.14,0,38.278-17.137,38.278-38.278V182.973
	C438.895,161.833,421.757,144.695,400.617,144.695z"/>
<path style="fill:#FFFFFF;" d="M396.75,249.872h-93.377c-19.523,0-35.35-15.827-35.35-35.35v-27.124
	c0-19.523,15.827-35.35,35.35-35.35h93.377c19.523,0,35.35,15.827,35.35,35.35v27.124
	C432.099,234.046,416.273,249.872,396.75,249.872z"/>
<path style="fill:#E0E0E0;" d="M396.75,152.049h-47.94v97.824h47.94c19.523,0,35.35-15.827,35.35-35.35v-27.124
	C432.099,167.875,416.273,152.049,396.75,152.049z"/>
<path style="fill:#FFA899;" d="M370.662,222.543H329.46c-8.615,0-15.598-6.983-15.598-15.598v-11.968
	c0-8.615,6.983-15.598,15.598-15.598h41.202c8.615,0,15.598,6.983,15.598,15.598v11.968
	C386.26,215.559,379.277,222.543,370.662,222.543z"/>
<path style="fill:#FF6472;" d="M370.662,179.378H348.81v43.164h21.853c8.615,0,15.598-6.984,15.598-15.598v-11.968
	C386.26,186.362,379.277,179.378,370.662,179.378z"/>
<g>
</g>
<g>
</g>
<g>
</g>
<g>
</g>
<g>
</g>
<g>
</g>
<g>
</g>
<g>
</g>
<g>
</g>
<g>
</g>
<g>
</g>
<g>
</g>
<g>
</g>
<g>
</g>
<g>
</g>
</svg>
